<svg width="331" height="331" viewBox="0 0 331 331" fill="none" xmlns="http://www.w3.org/2000/svg">
<path d="M165.5 133.417C193.344 133.417 215.917 110.845 215.917 83.0002C215.917 55.1558 193.344 32.5835 165.5 32.5835C137.656 32.5835 115.083 55.1558 115.083 83.0002C115.083 110.845 137.656 133.417 165.5 133.417Z" stroke="currentColor" stroke-width="30" stroke-linecap="round" stroke-linejoin="round"/>
<path d="M252.803 284.96C268.57 279.992 276.857 262.575 270.165 247.468C252.382 207.3 212.25 179.25 165.5 179.25C118.75 179.25 78.6183 207.3 60.835 247.468C54.1433 262.593 62.43 279.992 78.1967 284.96C100.655 292.037 130.373 298.417 165.5 298.417C200.627 298.417 230.345 292.037 252.803 284.96Z" stroke="currentColor" stroke-width="30" stroke-linecap="round" stroke-linejoin="round"/>
</svg>
