<svg width="330" height="330" viewBox="0 0 330 330" fill="none" xmlns="http://www.w3.org/2000/svg">
<path d="M123.75 72.1875V257.812" stroke="currentColor" stroke-width="26" stroke-linecap="round" stroke-linejoin="round"/>
<path d="M30.9375 215.519C30.9371 213.143 31.7581 210.84 33.2615 209C34.7649 207.161 36.8581 205.898 39.1864 205.425C48.503 203.522 56.8762 198.459 62.8896 191.092C68.903 183.726 72.1875 174.509 72.1875 165C72.1875 155.491 68.903 146.274 62.8896 138.908C56.8762 131.541 48.503 126.478 39.1864 124.575C36.8581 124.102 34.7649 122.839 33.2615 121C31.7581 119.16 30.9371 116.857 30.9375 114.481V82.5C30.9375 79.765 32.024 77.1419 33.958 75.208C35.8919 73.274 38.515 72.1875 41.25 72.1875H288.75C291.485 72.1875 294.108 73.274 296.042 75.208C297.976 77.1419 299.062 79.765 299.062 82.5V114.481C299.063 116.857 298.242 119.16 296.739 121C295.235 122.839 293.142 124.102 290.814 124.575C281.497 126.478 273.124 131.541 267.11 138.908C261.097 146.274 257.812 155.491 257.812 165C257.812 174.509 261.097 183.726 267.11 191.092C273.124 198.459 281.497 203.522 290.814 205.425C293.142 205.898 295.235 207.161 296.738 209C298.242 210.84 299.063 213.143 299.062 215.519V247.5C299.062 250.235 297.976 252.858 296.042 254.792C294.108 256.726 291.485 257.812 288.75 257.812H41.25C38.515 257.812 35.8919 256.726 33.958 254.792C32.024 252.858 30.9375 250.235 30.9375 247.5V215.519Z" stroke="currentColor" stroke-width="26" stroke-linecap="round" stroke-linejoin="round"/>
</svg>
