<svg width="200" height="167" viewBox="0 0 200 167" fill="none" xmlns="http://www.w3.org/2000/svg">
<g clip-path="url(#clip0_412_1472)">
<mask id="path-1-outside-1_412_1472" maskUnits="userSpaceOnUse" x="4.3277" y="-1.15381" width="191" height="169" fill="black">
<rect fill="white" x="4.3277" y="-1.15381" width="191" height="169"/>
<path d="M17.1759 55.6192C14.2999 55.6229 11.5426 56.8363 9.50898 58.9933C7.47531 61.1502 6.33124 64.0745 6.3277 67.1248V102.352C6.33124 105.402 7.47531 108.327 9.50898 110.484C11.5426 112.641 14.2999 113.854 17.1759 113.858H28.0456C32.6366 122.139 39.2152 129.514 47.2831 135.477V160.136C47.2831 161.643 47.8475 163.088 48.8521 164.154C49.8568 165.219 51.2194 165.818 52.6402 165.818H80.3098C81.7306 165.818 83.0933 165.219 84.0979 164.154C85.1026 163.088 85.667 161.643 85.667 160.136V150.449C89.034 150.846 92.4491 151.074 95.8991 151.074C99.3491 151.074 102.764 150.846 106.131 150.449V160.136C106.131 161.643 106.696 163.088 107.7 164.154C108.705 165.219 110.068 165.818 111.488 165.818H139.158C140.579 165.818 141.941 165.219 142.946 164.154C143.951 163.088 144.515 161.643 144.515 160.136V135.477C159.981 124.079 169.426 108.017 171.105 90.4203H171.205C183.593 90.4203 193.672 79.7271 193.672 66.5879V60.3351C193.672 58.8282 193.108 57.383 192.103 56.3174C191.099 55.2519 189.736 54.6533 188.315 54.6533C186.894 54.6533 185.532 55.2519 184.527 56.3174C183.522 57.383 182.958 58.8282 182.958 60.3351V66.5879C182.955 69.8932 181.715 73.0621 179.512 75.3995C177.308 77.737 174.321 79.0522 171.205 79.0567H171.111C167.816 45.1476 135.352 18.4317 95.8965 18.4317C87.7054 18.4317 79.6911 19.568 72.0357 21.8123L46.6884 1.96291C45.8802 1.32725 44.9193 0.946142 43.9161 0.863315C42.9129 0.780488 41.908 0.999295 41.0168 1.49463C40.1255 1.98997 39.3839 2.74176 38.8772 3.66376C38.3704 4.58575 38.119 5.64058 38.1518 6.70723L39.1322 41.0055C34.8131 45.2974 31.0903 50.2177 28.075 55.6192H17.1732H17.1759ZM35.9982 63.9033C38.8857 57.9601 42.909 52.5623 47.9527 47.8521C48.5884 47.3008 49.0961 46.6018 49.4365 45.8092C49.777 45.0166 49.941 44.1516 49.9161 43.2811L49.1929 18.0538L67.6482 32.5055C68.3324 33.0843 69.1398 33.4766 69.9999 33.6479C70.86 33.8193 71.7466 33.7645 72.5822 33.4885C80.134 31.0155 87.9956 29.7703 95.8991 29.7953C131.626 29.7953 160.694 54.443 160.694 84.7385C160.694 101.52 151.793 117.17 136.273 127.676C136.257 127.69 136.246 127.704 136.228 127.716C136.04 127.846 135.874 128 135.705 128.153C135.604 128.247 135.491 128.327 135.395 128.426C135.269 128.56 135.162 128.713 135.046 128.861C134.939 128.997 134.821 129.125 134.728 129.273C134.637 129.415 134.567 129.577 134.489 129.727C134.404 129.898 134.304 130.054 134.235 130.227C134.171 130.383 134.136 130.554 134.085 130.716C134.029 130.903 133.962 131.085 133.924 131.278C133.895 131.415 133.892 131.562 133.871 131.702C133.844 131.935 133.809 132.165 133.806 132.4L133.801 132.466V154.454H116.846V143.886C116.846 142.379 116.281 140.934 115.276 139.869C114.272 138.803 112.909 138.204 111.488 138.204C111.158 138.207 110.828 138.242 110.503 138.31V138.301C100.847 140.168 90.9517 140.168 81.2956 138.301V138.31C80.9708 138.242 80.6408 138.207 80.3098 138.204C78.889 138.204 77.5264 138.803 76.5218 139.869C75.5171 140.934 74.9527 142.379 74.9527 143.886V154.454H57.9973V132.466L57.992 132.403C57.9893 132.162 57.9545 131.923 57.9223 131.685C57.9063 131.551 57.9036 131.412 57.8768 131.281C57.8366 131.082 57.7643 130.889 57.7054 130.696C57.6572 130.54 57.625 130.378 57.5634 130.23C57.4884 130.042 57.384 129.872 57.2902 129.693C57.2152 129.554 57.1563 129.406 57.0706 129.275C56.9715 129.119 56.8429 128.98 56.7277 128.835C56.6206 128.699 56.5241 128.551 56.4063 128.426C56.3045 128.324 56.184 128.236 56.0741 128.139C55.9134 127.994 55.7527 127.844 55.5732 127.719C55.5545 127.707 55.5411 127.69 55.525 127.676C46.8893 121.824 40.1313 114.187 35.9795 105.588C35.5306 104.656 34.8479 103.874 34.0066 103.328C33.1653 102.781 32.1981 102.492 31.2116 102.491L17.042 102.349L17.1759 66.98H31.2384C32.2216 66.9798 33.1858 66.6926 34.0253 66.1499C34.8649 65.6072 35.5474 64.83 35.9982 63.9033Z"/>
</mask>
<path d="M17.1759 55.6192C14.2999 55.6229 11.5426 56.8363 9.50898 58.9933C7.47531 61.1502 6.33124 64.0745 6.3277 67.1248V102.352C6.33124 105.402 7.47531 108.327 9.50898 110.484C11.5426 112.641 14.2999 113.854 17.1759 113.858H28.0456C32.6366 122.139 39.2152 129.514 47.2831 135.477V160.136C47.2831 161.643 47.8475 163.088 48.8521 164.154C49.8568 165.219 51.2194 165.818 52.6402 165.818H80.3098C81.7306 165.818 83.0933 165.219 84.0979 164.154C85.1026 163.088 85.667 161.643 85.667 160.136V150.449C89.034 150.846 92.4491 151.074 95.8991 151.074C99.3491 151.074 102.764 150.846 106.131 150.449V160.136C106.131 161.643 106.696 163.088 107.7 164.154C108.705 165.219 110.068 165.818 111.488 165.818H139.158C140.579 165.818 141.941 165.219 142.946 164.154C143.951 163.088 144.515 161.643 144.515 160.136V135.477C159.981 124.079 169.426 108.017 171.105 90.4203H171.205C183.593 90.4203 193.672 79.7271 193.672 66.5879V60.3351C193.672 58.8282 193.108 57.383 192.103 56.3174C191.099 55.2519 189.736 54.6533 188.315 54.6533C186.894 54.6533 185.532 55.2519 184.527 56.3174C183.522 57.383 182.958 58.8282 182.958 60.3351V66.5879C182.955 69.8932 181.715 73.0621 179.512 75.3995C177.308 77.737 174.321 79.0522 171.205 79.0567H171.111C167.816 45.1476 135.352 18.4317 95.8965 18.4317C87.7054 18.4317 79.6911 19.568 72.0357 21.8123L46.6884 1.96291C45.8802 1.32725 44.9193 0.946142 43.9161 0.863315C42.9129 0.780488 41.908 0.999295 41.0168 1.49463C40.1255 1.98997 39.3839 2.74176 38.8772 3.66376C38.3704 4.58575 38.119 5.64058 38.1518 6.70723L39.1322 41.0055C34.8131 45.2974 31.0903 50.2177 28.075 55.6192H17.1732H17.1759ZM35.9982 63.9033C38.8857 57.9601 42.909 52.5623 47.9527 47.8521C48.5884 47.3008 49.0961 46.6018 49.4365 45.8092C49.777 45.0166 49.941 44.1516 49.9161 43.2811L49.1929 18.0538L67.6482 32.5055C68.3324 33.0843 69.1398 33.4766 69.9999 33.6479C70.86 33.8193 71.7466 33.7645 72.5822 33.4885C80.134 31.0155 87.9956 29.7703 95.8991 29.7953C131.626 29.7953 160.694 54.443 160.694 84.7385C160.694 101.52 151.793 117.17 136.273 127.676C136.257 127.69 136.246 127.704 136.228 127.716C136.04 127.846 135.874 128 135.705 128.153C135.604 128.247 135.491 128.327 135.395 128.426C135.269 128.56 135.162 128.713 135.046 128.861C134.939 128.997 134.821 129.125 134.728 129.273C134.637 129.415 134.567 129.577 134.489 129.727C134.404 129.898 134.304 130.054 134.235 130.227C134.171 130.383 134.136 130.554 134.085 130.716C134.029 130.903 133.962 131.085 133.924 131.278C133.895 131.415 133.892 131.562 133.871 131.702C133.844 131.935 133.809 132.165 133.806 132.4L133.801 132.466V154.454H116.846V143.886C116.846 142.379 116.281 140.934 115.276 139.869C114.272 138.803 112.909 138.204 111.488 138.204C111.158 138.207 110.828 138.242 110.503 138.31V138.301C100.847 140.168 90.9517 140.168 81.2956 138.301V138.31C80.9708 138.242 80.6408 138.207 80.3098 138.204C78.889 138.204 77.5264 138.803 76.5218 139.869C75.5171 140.934 74.9527 142.379 74.9527 143.886V154.454H57.9973V132.466L57.992 132.403C57.9893 132.162 57.9545 131.923 57.9223 131.685C57.9063 131.551 57.9036 131.412 57.8768 131.281C57.8366 131.082 57.7643 130.889 57.7054 130.696C57.6572 130.54 57.625 130.378 57.5634 130.23C57.4884 130.042 57.384 129.872 57.2902 129.693C57.2152 129.554 57.1563 129.406 57.0706 129.275C56.9715 129.119 56.8429 128.98 56.7277 128.835C56.6206 128.699 56.5241 128.551 56.4063 128.426C56.3045 128.324 56.184 128.236 56.0741 128.139C55.9134 127.994 55.7527 127.844 55.5732 127.719C55.5545 127.707 55.5411 127.69 55.525 127.676C46.8893 121.824 40.1313 114.187 35.9795 105.588C35.5306 104.656 34.8479 103.874 34.0066 103.328C33.1653 102.781 32.1981 102.492 31.2116 102.491L17.042 102.349L17.1759 66.98H31.2384C32.2216 66.9798 33.1858 66.6926 34.0253 66.1499C34.8649 65.6072 35.5474 64.83 35.9982 63.9033Z" fill="#C6D8FF"/>
<path d="M17.1759 55.6192C14.2999 55.6229 11.5426 56.8363 9.50898 58.9933C7.47531 61.1502 6.33124 64.0745 6.3277 67.1248V102.352C6.33124 105.402 7.47531 108.327 9.50898 110.484C11.5426 112.641 14.2999 113.854 17.1759 113.858H28.0456C32.6366 122.139 39.2152 129.514 47.2831 135.477V160.136C47.2831 161.643 47.8475 163.088 48.8521 164.154C49.8568 165.219 51.2194 165.818 52.6402 165.818H80.3098C81.7306 165.818 83.0933 165.219 84.0979 164.154C85.1026 163.088 85.667 161.643 85.667 160.136V150.449C89.034 150.846 92.4491 151.074 95.8991 151.074C99.3491 151.074 102.764 150.846 106.131 150.449V160.136C106.131 161.643 106.696 163.088 107.7 164.154C108.705 165.219 110.068 165.818 111.488 165.818H139.158C140.579 165.818 141.941 165.219 142.946 164.154C143.951 163.088 144.515 161.643 144.515 160.136V135.477C159.981 124.079 169.426 108.017 171.105 90.4203H171.205C183.593 90.4203 193.672 79.7271 193.672 66.5879V60.3351C193.672 58.8282 193.108 57.383 192.103 56.3174C191.099 55.2519 189.736 54.6533 188.315 54.6533C186.894 54.6533 185.532 55.2519 184.527 56.3174C183.522 57.383 182.958 58.8282 182.958 60.3351V66.5879C182.955 69.8932 181.715 73.0621 179.512 75.3995C177.308 77.737 174.321 79.0522 171.205 79.0567H171.111C167.816 45.1476 135.352 18.4317 95.8965 18.4317C87.7054 18.4317 79.6911 19.568 72.0357 21.8123L46.6884 1.96291C45.8802 1.32725 44.9193 0.946142 43.9161 0.863315C42.9129 0.780488 41.908 0.999295 41.0168 1.49463C40.1255 1.98997 39.3839 2.74176 38.8772 3.66376C38.3704 4.58575 38.119 5.64058 38.1518 6.70723L39.1322 41.0055C34.8131 45.2974 31.0903 50.2177 28.075 55.6192H17.1732H17.1759ZM35.9982 63.9033C38.8857 57.9601 42.909 52.5623 47.9527 47.8521C48.5884 47.3008 49.0961 46.6018 49.4365 45.8092C49.777 45.0166 49.941 44.1516 49.9161 43.2811L49.1929 18.0538L67.6482 32.5055C68.3324 33.0843 69.1398 33.4766 69.9999 33.6479C70.86 33.8193 71.7466 33.7645 72.5822 33.4885C80.134 31.0155 87.9956 29.7703 95.8991 29.7953C131.626 29.7953 160.694 54.443 160.694 84.7385C160.694 101.52 151.793 117.17 136.273 127.676C136.257 127.69 136.246 127.704 136.228 127.716C136.04 127.846 135.874 128 135.705 128.153C135.604 128.247 135.491 128.327 135.395 128.426C135.269 128.56 135.162 128.713 135.046 128.861C134.939 128.997 134.821 129.125 134.728 129.273C134.637 129.415 134.567 129.577 134.489 129.727C134.404 129.898 134.304 130.054 134.235 130.227C134.171 130.383 134.136 130.554 134.085 130.716C134.029 130.903 133.962 131.085 133.924 131.278C133.895 131.415 133.892 131.562 133.871 131.702C133.844 131.935 133.809 132.165 133.806 132.4L133.801 132.466V154.454H116.846V143.886C116.846 142.379 116.281 140.934 115.276 139.869C114.272 138.803 112.909 138.204 111.488 138.204C111.158 138.207 110.828 138.242 110.503 138.31V138.301C100.847 140.168 90.9517 140.168 81.2956 138.301V138.31C80.9708 138.242 80.6408 138.207 80.3098 138.204C78.889 138.204 77.5264 138.803 76.5218 139.869C75.5171 140.934 74.9527 142.379 74.9527 143.886V154.454H57.9973V132.466L57.992 132.403C57.9893 132.162 57.9545 131.923 57.9223 131.685C57.9063 131.551 57.9036 131.412 57.8768 131.281C57.8366 131.082 57.7643 130.889 57.7054 130.696C57.6572 130.54 57.625 130.378 57.5634 130.23C57.4884 130.042 57.384 129.872 57.2902 129.693C57.2152 129.554 57.1563 129.406 57.0706 129.275C56.9715 129.119 56.8429 128.98 56.7277 128.835C56.6206 128.699 56.5241 128.551 56.4063 128.426C56.3045 128.324 56.184 128.236 56.0741 128.139C55.9134 127.994 55.7527 127.844 55.5732 127.719C55.5545 127.707 55.5411 127.69 55.525 127.676C46.8893 121.824 40.1313 114.187 35.9795 105.588C35.5306 104.656 34.8479 103.874 34.0066 103.328C33.1653 102.781 32.1981 102.492 31.2116 102.491L17.042 102.349L17.1759 66.98H31.2384C32.2216 66.9798 33.1858 66.6926 34.0253 66.1499C34.8649 65.6072 35.5474 64.83 35.9982 63.9033Z" stroke="#C6D8FF" stroke-width="2.42424" mask="url(#path-1-outside-1_412_1472)"/>
<path d="M52.3777 72.23C53.7985 72.23 55.1611 71.6314 56.1657 70.5659C57.1704 69.5003 57.7348 68.0551 57.7348 66.5482V61.4914C57.7348 59.9845 57.1704 58.5393 56.1657 57.4737C55.1611 56.4082 53.7985 55.8096 52.3777 55.8096C50.9568 55.8096 49.5942 56.4082 48.5896 57.4737C47.5849 58.5393 47.0205 59.9845 47.0205 61.4914V66.5482C47.0205 68.0551 47.5849 69.5003 48.5896 70.5659C49.5942 71.6314 50.9568 72.23 52.3777 72.23Z" fill="#C6D8FF"/>
</g>
<defs>
<clipPath id="clip0_412_1472">
<rect width="200" height="166.667" fill="white"/>
</clipPath>
</defs>
</svg>
