<svg width="89" height="104" viewBox="0 0 89 104" fill="none" xmlns="http://www.w3.org/2000/svg">
<g clip-path="url(#clip0_84_2717)">
<path d="M85.142 0.00189858C84.879 0.0136886 84.618 0.0534543 84.3635 0.120522L25.0518 14.9485C24.2507 15.1483 23.5392 15.6098 23.0302 16.2598C22.5212 16.9098 22.2438 17.7112 22.2419 18.5368V76.2249C20.0016 74.8793 17.4412 74.1599 14.8279 74.1416C6.67998 74.1416 0 80.8216 0 88.9695C0 97.1174 6.67998 103.797 14.8279 103.797C22.6867 103.797 29.1295 97.5549 29.5669 89.7924C29.6272 89.5223 29.657 89.2463 29.6559 88.9695V47.3771L81.5536 34.4027V61.397C79.3133 60.0514 76.7529 59.3319 74.1396 59.3136C65.9917 59.3136 59.3117 65.9936 59.3117 74.1416C59.3117 82.2895 65.9917 88.9695 74.1396 88.9695C81.9984 88.9695 88.4412 82.7269 88.8786 74.9645C88.9389 74.6944 88.9687 74.4183 88.9676 74.1416V30.1471C89.0108 29.8223 89.0108 29.4932 88.9676 29.1684V3.70888C88.9678 3.21193 88.8682 2.72 88.6745 2.26234C88.4808 1.80467 88.1971 1.39062 87.8402 1.0448C87.4833 0.698978 87.0605 0.428447 86.597 0.249287C86.1335 0.0701266 85.6387 -0.014004 85.142 0.00189858ZM81.5536 8.45382V26.7663L29.6559 39.7408V21.4283L81.5536 8.45382ZM74.1396 66.7276C78.2766 66.7276 81.5536 70.0046 81.5536 74.1416C81.5536 78.2786 78.2766 81.5555 74.1396 81.5555C70.0026 81.5555 66.7257 78.2786 66.7257 74.1416C66.7257 70.0046 70.0026 66.7276 74.1396 66.7276ZM14.8279 81.5555C18.9649 81.5555 22.2419 84.8325 22.2419 88.9695C22.2419 93.1065 18.9649 96.3835 14.8279 96.3835C10.6909 96.3835 7.41396 93.1065 7.41396 88.9695C7.41396 84.8325 10.6909 81.5555 14.8279 81.5555Z" fill="url(#paint0_linear_84_2717)"/>
</g>
<defs>
<linearGradient id="paint0_linear_84_2717" x1="9.12488" y1="15.9685" x2="80.9833" y2="86.6864" gradientUnits="userSpaceOnUse">
<stop stop-color="#C6D8FF"/>
<stop offset="0.970558" stop-color="#C1BBF6"/>
</linearGradient>
<clipPath id="clip0_84_2717">
<rect width="89" height="104" fill="white"/>
</clipPath>
</defs>
</svg>
