<svg width="24" height="24" viewBox="0 0 24 24" fill="none" xmlns="http://www.w3.org/2000/svg">
<path fill-rule="evenodd" clip-rule="evenodd" d="M9 10.75C9 10.0207 9.28973 9.32118 9.80546 8.80546C10.3212 8.28973 11.0207 8 11.75 8C12.4793 8 13.1788 8.28973 13.6945 8.80546C14.2103 9.32118 14.5 10.0207 14.5 10.75C14.5 11.4793 14.2103 12.1788 13.6945 12.6945C13.1788 13.2103 12.4793 13.5 11.75 13.5C11.0207 13.5 10.3212 13.2103 9.80546 12.6945C9.28973 12.1788 9 11.4793 9 10.75ZM11.75 9.5C11.4185 9.5 11.1005 9.6317 10.8661 9.86612C10.6317 10.1005 10.5 10.4185 10.5 10.75C10.5 11.0815 10.6317 11.3995 10.8661 11.6339C11.1005 11.8683 11.4185 12 11.75 12C12.0815 12 12.3995 11.8683 12.6339 11.6339C12.8683 11.3995 13 11.0815 13 10.75C13 10.4185 12.8683 10.1005 12.6339 9.86612C12.3995 9.6317 12.0815 9.5 11.75 9.5Z" fill="#C6D8FF"/>
<path d="M9.5 18.0271C9.5 17.1621 10.074 16.4021 10.905 16.1641C11.7841 15.9128 12.7159 15.9128 13.595 16.1641C13.9998 16.2798 14.3558 16.5243 14.6093 16.8604C14.8628 17.1965 14.9999 17.6061 15 18.0271V18.5001C15 18.699 15.079 18.8897 15.2197 19.0304C15.3603 19.171 15.5511 19.2501 15.75 19.2501C15.9489 19.2501 16.1397 19.171 16.2803 19.0304C16.421 18.8897 16.5 18.699 16.5 18.5001V18.0271C16.4999 17.2801 16.2565 16.5536 15.8067 15.9573C15.3569 15.361 14.7252 14.9274 14.007 14.7221C12.8586 14.3939 11.6414 14.3939 10.493 14.7221C9.77485 14.9274 9.14309 15.361 8.69329 15.9573C8.24349 16.5536 8.00012 17.2801 8 18.0271V18.5001C8 18.699 8.07902 18.8897 8.21967 19.0304C8.36032 19.171 8.55109 19.2501 8.75 19.2501C8.94891 19.2501 9.13968 19.171 9.28033 19.0304C9.42098 18.8897 9.5 18.699 9.5 18.5001V18.0271Z" fill="#C6D8FF"/>
<path fill-rule="evenodd" clip-rule="evenodd" d="M11.3721 2.00155C11.0099 2.00155 10.6781 2.00155 10.4034 2.02655C10.104 2.05355 9.78109 2.11655 9.47836 2.29655C9.26403 2.42427 9.08001 2.58839 8.93682 2.77955C8.735 3.04955 8.66436 3.33755 8.63409 3.60455C8.61997 3.73821 8.61174 3.87232 8.60942 4.00655C7.93445 4.01355 7.34806 4.03255 6.84127 4.08355C5.99588 4.16855 5.26821 4.34955 4.64482 4.77655C4.3533 4.97655 4.09206 5.20855 3.86894 5.46855C3.39018 6.02455 3.18724 6.67355 3.09194 7.42855C3 8.15755 3 9.07155 3 10.2066V15.8066C3 17.1736 3 18.2766 3.13118 19.1436C3.26573 20.0436 3.55724 20.8016 4.23109 21.4036C4.90606 22.0056 5.75594 22.2636 6.76503 22.3856C7.73712 22.5016 8.97382 22.5016 10.5065 22.5016H13.9935C15.5262 22.5016 16.7629 22.5016 17.735 22.3856C18.7441 22.2636 19.5939 22.0056 20.2689 21.4036C20.9439 20.8016 21.2332 20.0436 21.3699 19.1436C21.5 18.2766 21.5 17.1736 21.5 15.8066V10.2066C21.5 9.07155 21.5 8.15655 21.4081 7.42755C21.3128 6.67355 21.1098 6.02455 20.6311 5.46855C20.4074 5.20865 20.1466 4.976 19.8552 4.77655C19.2318 4.34955 18.5041 4.16855 17.6576 4.08355C17.1519 4.03355 16.5655 4.01355 15.8906 4.00655C15.8882 3.87232 15.88 3.73822 15.8659 3.60455C15.8356 3.33755 15.765 3.04955 15.5632 2.77955C15.42 2.58839 15.236 2.42427 15.0216 2.29655C14.7189 2.11655 14.396 2.05355 14.0966 2.02655C13.7744 2.00458 13.4511 1.99623 13.1279 2.00155H11.3721ZM15.8513 5.50555C16.5039 5.51255 17.0286 5.52955 17.4704 5.57455C18.1655 5.64455 18.549 5.77355 18.8315 5.96655C19.0064 6.08655 19.1623 6.22655 19.2968 6.38155C19.5132 6.63355 19.6578 6.97555 19.7363 7.59555C19.8171 8.23155 19.8182 9.06155 19.8182 10.2516V15.7516C19.8182 17.1866 19.8159 18.1876 19.7027 18.9436C19.5917 19.6776 19.3888 20.0656 19.0793 20.3426C18.7687 20.6196 18.3337 20.7996 17.5096 20.8986C16.6642 20.9996 15.5408 21.0016 13.9318 21.0016H10.5682C8.95924 21.0016 7.83579 20.9996 6.98927 20.8986C6.1663 20.7996 5.73127 20.6186 5.4207 20.3426C5.11012 20.0656 4.9083 19.6776 4.7973 18.9426C4.68406 18.1876 4.68182 17.1866 4.68182 15.7516V10.2516C4.68182 9.06155 4.68294 8.23155 4.76367 7.59555C4.84215 6.97555 4.98679 6.63355 5.20318 6.38155C5.33773 6.22555 5.4947 6.08655 5.66848 5.96655C5.95103 5.77355 6.33448 5.64455 7.02964 5.57455C7.47139 5.52955 7.99612 5.51255 8.64867 5.50555C8.68567 5.74155 8.76079 5.98955 8.93682 6.22355C9.08033 6.41455 9.26421 6.57855 9.47836 6.70655C9.78109 6.88655 10.104 6.94955 10.4034 6.97655C10.6781 7.00155 11.0099 7.00155 11.3721 7.00155H13.1279C13.4901 7.00155 13.8219 7.00155 14.0966 6.97655C14.396 6.94955 14.7189 6.88655 15.0216 6.70655C15.236 6.57884 15.42 6.41472 15.5632 6.22355C15.7197 6.00709 15.8183 5.76142 15.8513 5.50555ZM10.5727 3.51855C10.5171 3.52153 10.4621 3.53059 10.409 3.54555C10.3807 3.56304 10.3564 3.58509 10.3372 3.61055C10.3206 3.65762 10.3104 3.70631 10.3069 3.75555C10.289 3.91555 10.2879 4.13555 10.2879 4.50155C10.2879 4.86855 10.2879 5.08655 10.3069 5.24755C10.3104 5.2968 10.3206 5.34549 10.3372 5.39255C10.3563 5.41855 10.3821 5.44055 10.4101 5.45755C10.4213 5.46255 10.4662 5.47455 10.5727 5.48455C10.7521 5.50055 10.9987 5.50155 11.4091 5.50155H13.0909C13.5024 5.50155 13.7468 5.50155 13.9273 5.48455C13.9826 5.48148 14.0371 5.47241 14.0899 5.45755C14.1185 5.44009 14.1432 5.41805 14.1628 5.39255C14.1794 5.34549 14.1896 5.2968 14.1931 5.24755C14.211 5.08755 14.2121 4.86755 14.2121 4.50155C14.2121 4.13455 14.2121 3.91655 14.1931 3.75555C14.1896 3.70631 14.1794 3.65762 14.1628 3.61055C14.1432 3.58506 14.1185 3.56302 14.0899 3.54555C14.0372 3.53067 13.9826 3.52161 13.9273 3.51855C13.6489 3.50187 13.3699 3.4962 13.0909 3.50155H11.4091C10.9976 3.50155 10.7532 3.50155 10.5727 3.51855Z" fill="#C6D8FF"/>
</svg>
