<svg width="169" height="169" viewBox="0 0 169 169" fill="none" xmlns="http://www.w3.org/2000/svg">
<path d="M157.215 11.5312C149.778 4.095 139.89 0 129.376 0C118.858 0 108.969 4.095 101.533 11.5312C93.202 19.8619 89.4333 31.0275 90.142 41.9569L17.0902 126.636C14.3789 129.825 12.8827 133.914 12.8827 138.15C12.8827 140.917 13.5858 143.595 14.7727 146.025L1.64953 159.148C-0.549844 161.347 -0.549844 164.903 1.64953 167.102C2.74641 168.199 4.18641 168.75 5.62641 168.75C7.06641 168.75 8.50641 168.199 9.60328 167.102L22.7095 153.996C25.1789 155.211 27.8564 155.897 30.5677 155.897C34.6852 155.897 38.8195 154.491 42.1495 151.639L126.778 78.6319C127.638 78.6825 128.505 78.75 129.376 78.75C139.89 78.75 149.778 74.6494 157.215 67.2131C172.571 51.8681 172.571 26.8819 157.215 11.5312ZM34.8145 143.106C32.3339 145.232 28.2783 145.086 25.972 142.774C24.802 141.609 24.1327 139.922 24.1327 138.15C24.1327 136.581 24.6783 135.079 25.6345 133.948L93.4327 55.3613C95.3395 59.6588 98.0058 63.6975 101.527 67.2187C104.992 70.6894 109.014 73.395 113.362 75.3356L34.8145 143.106ZM109.486 59.265C100.43 50.2088 98.9789 36.5119 104.88 25.8188C108.53 31.7925 114.262 40.1738 121.423 47.3344C128.578 54.495 136.976 60.2269 142.944 63.8775C138.826 66.1669 134.22 67.5 129.376 67.5C121.861 67.5 114.796 64.575 109.486 59.265ZM151.86 56.0756C146.611 53.0606 137.043 47.0419 129.376 39.375C121.698 31.7025 115.68 22.1231 112.665 16.875C117.485 13.2806 123.251 11.25 129.376 11.25C136.886 11.25 143.951 14.175 149.261 19.485C159.24 29.4638 160.033 45.0731 151.86 56.0756Z" fill="#C6D8FF"/>
</svg>
