<svg width="180" height="180" viewBox="0 0 180 180" fill="none" xmlns="http://www.w3.org/2000/svg">
<g clip-path="url(#clip0_412_1464)">
<path d="M44.3893 21.0224L34.2535 17.5224L30.8678 7.0002C29.775 3.6002 24.3428 3.6002 23.25 7.0002L19.8643 17.5224L9.72855 21.0224C8.08926 21.5891 6.97498 23.178 6.97498 24.978C6.97498 26.778 8.08926 28.3669 9.72855 28.9335L19.8643 32.4335L23.25 42.9558C23.7964 44.6558 25.3285 45.8002 27.0535 45.8002C28.7785 45.8002 30.3214 44.6446 30.8571 42.9558L34.2428 32.4335L44.3785 28.9335C46.0178 28.3669 47.1321 26.778 47.1321 24.978C47.1321 23.178 46.0285 21.5891 44.3893 21.0224Z" fill="#C6D8FF"/>
<path d="M137.882 101.422L167.679 71.3001L114 63.2223L90 12.7778L66 63.2223L12.3214 71.3001L51.1607 110.567L41.9893 166L88.5428 140.622" stroke="#C6D8FF" stroke-width="25" stroke-linecap="round" stroke-linejoin="round"/>
<path d="M155.979 143.22L142.447 138.542L137.936 124.508C136.468 119.975 129.236 119.975 127.768 124.508L123.257 138.542L109.725 143.22C107.539 143.975 106.061 146.097 106.061 148.486C106.061 150.875 107.539 152.997 109.725 153.753L123.257 158.431L127.768 172.464C128.497 174.731 130.554 176.264 132.857 176.264C135.161 176.264 137.207 174.731 137.947 172.464L142.457 158.431L155.989 153.753C158.175 152.997 159.654 150.875 159.654 148.486C159.654 146.097 158.175 143.975 155.989 143.22H155.979Z" fill="#C6D8FF"/>
<path d="M146.25 37.7751C150.688 37.7751 154.286 34.0441 154.286 29.4417C154.286 24.8394 150.688 21.1084 146.25 21.1084C141.812 21.1084 138.214 24.8394 138.214 29.4417C138.214 34.0441 141.812 37.7751 146.25 37.7751Z" fill="#C6D8FF"/>
</g>
<defs>
<clipPath id="clip0_412_1464">
<rect width="180" height="180" fill="white"/>
</clipPath>
</defs>
</svg>
