<svg width="180" height="180" viewBox="0 0 180 180" fill="none" xmlns="http://www.w3.org/2000/svg">
<path d="M151.45 54.9997L157.31 61.2297C160.61 64.7397 160.91 70.0797 158.01 73.9297L98.08 153.49C94.05 158.84 85.94 158.84 81.92 153.49L21.99 73.9297C19.09 70.0797 19.39 64.7497 22.69 61.2297L46.73 35.6697C48.64 33.6397 51.31 32.4897 54.11 32.4897H107.5" stroke="#C6D8FF" stroke-width="15" stroke-linecap="round" stroke-linejoin="round"/>
<path d="M20.53 67.5H159.51" stroke="#C6D8FF" stroke-width="15" stroke-linecap="round" stroke-linejoin="round"/>
<path d="M78.8 32.5L60.57 67.5L87.65 157.23" stroke="#C6D8FF" stroke-width="15" stroke-linecap="round" stroke-linejoin="round"/>
<path d="M101.2 32.5L119.43 67.5L92.35 157.23" stroke="#C6D8FF" stroke-width="15" stroke-linecap="round" stroke-linejoin="round"/>
<path d="M157.43 19.9199L147.97 16.7699L144.81 7.29988C143.79 4.23988 138.72 4.23988 137.7 7.29988L134.54 16.7699L125.08 19.9199C123.55 20.4299 122.51 21.8599 122.51 23.4799C122.51 25.0999 123.55 26.5299 125.08 27.0399L134.54 30.1899L137.7 39.6599C138.21 41.1899 139.64 42.2199 141.25 42.2199C142.86 42.2199 144.3 41.1799 144.8 39.6599L147.96 30.1899L157.42 27.0399C158.95 26.5299 159.99 25.0999 159.99 23.4799C159.99 21.8599 158.95 20.4299 157.42 19.9199H157.43Z" fill="#C6D8FF"/>
<path d="M17.5 30C21.6421 30 25 26.6421 25 22.5C25 18.3579 21.6421 15 17.5 15C13.3579 15 10 18.3579 10 22.5C10 26.6421 13.3579 30 17.5 30Z" fill="#C6D8FF"/>
</svg>
