<svg width="180" height="180" viewBox="0 0 180 180" fill="none" xmlns="http://www.w3.org/2000/svg">
<path d="M112.5 135V90.36C112.5 88.46 112.23 86.58 111.7 84.76L97.1 34.7C95.86 30.43 91.94 27.5 87.5 27.5H57.5C51.98 27.5 47.5 31.98 47.5 37.5V87.5" stroke="#C6D8FF" stroke-width="15" stroke-linecap="round" stroke-linejoin="round"/>
<path d="M42.31 132.5H77.5" stroke="#C6D8FF" stroke-width="15" stroke-linecap="round" stroke-linejoin="round"/>
<path d="M111.76 87.5H27.5C16.45 87.5 7.5 96.45 7.5 107.5V135" stroke="#C6D8FF" stroke-width="15" stroke-linecap="round" stroke-linejoin="round"/>
<path d="M172.5 152.5H147.5C141.98 152.5 137.5 148.02 137.5 142.5V17.5" stroke="#C6D8FF" stroke-width="15" stroke-linecap="round" stroke-linejoin="round"/>
<path d="M25 152.5C34.665 152.5 42.5 144.665 42.5 135C42.5 125.335 34.665 117.5 25 117.5C15.335 117.5 7.5 125.335 7.5 135C7.5 144.665 15.335 152.5 25 152.5Z" stroke="#C6D8FF" stroke-width="15" stroke-linecap="round" stroke-linejoin="round"/>
<path d="M95 152.5C104.665 152.5 112.5 144.665 112.5 135C112.5 125.335 104.665 117.5 95 117.5C85.335 117.5 77.5 125.335 77.5 135C77.5 144.665 85.335 152.5 95 152.5Z" stroke="#C6D8FF" stroke-width="15" stroke-linecap="round" stroke-linejoin="round"/>
</svg>
