<svg width="331" height="331" viewBox="0 0 331 331" fill="none" xmlns="http://www.w3.org/2000/svg">
<path d="M124.25 72.6875V258.312" stroke="#EEF0F4" stroke-width="26" stroke-linecap="round" stroke-linejoin="round"/>
<path d="M31.4375 216.019C31.4371 213.643 32.2581 211.34 33.7615 209.5C35.2649 207.661 37.3581 206.398 39.6864 205.925C49.003 204.022 57.3762 198.959 63.3896 191.592C69.403 184.226 72.6875 175.009 72.6875 165.5C72.6875 155.991 69.403 146.774 63.3896 139.408C57.3762 132.041 49.003 126.978 39.6864 125.075C37.3581 124.602 35.2649 123.339 33.7615 121.5C32.2581 119.66 31.4371 117.357 31.4375 114.981V83C31.4375 80.265 32.524 77.6419 34.458 75.708C36.3919 73.774 39.015 72.6875 41.75 72.6875H289.25C291.985 72.6875 294.608 73.774 296.542 75.708C298.476 77.6419 299.562 80.265 299.562 83V114.981C299.563 117.357 298.742 119.66 297.239 121.5C295.735 123.339 293.642 124.602 291.314 125.075C281.997 126.978 273.624 132.041 267.61 139.408C261.597 146.774 258.312 155.991 258.312 165.5C258.312 175.009 261.597 184.226 267.61 191.592C273.624 198.959 281.997 204.022 291.314 205.925C293.642 206.398 295.735 207.661 297.238 209.5C298.742 211.34 299.563 213.643 299.562 216.019V248C299.562 250.735 298.476 253.358 296.542 255.292C294.608 257.226 291.985 258.312 289.25 258.312H41.75C39.015 258.312 36.3919 257.226 34.458 255.292C32.524 253.358 31.4375 250.735 31.4375 248V216.019Z" stroke="#EEF0F4" stroke-width="26" stroke-linecap="round" stroke-linejoin="round"/>
</svg>
