<svg width="180" height="180" viewBox="0 0 180 180" fill="none" xmlns="http://www.w3.org/2000/svg">
<path d="M96.87 67.5C96.87 71.6421 100.228 75 104.37 75C108.512 75 111.87 71.6421 111.87 67.5C111.87 63.3579 108.512 60 104.37 60C100.228 60 96.87 63.3579 96.87 67.5Z" fill="#C6D8FF"/>
<path d="M68.13 67.5C68.13 71.6421 71.4879 75 75.63 75C79.7721 75 83.13 71.6421 83.13 67.5C83.13 63.3579 79.7721 60 75.63 60C71.4879 60 68.13 63.3579 68.13 67.5Z" fill="#C6D8FF"/>
<path d="M142.5 142.5V82.5C134.22 82.5 127.5 75.78 127.5 67.5C127.5 59.22 134.22 52.5 142.5 52.5V37.5C142.5 26.45 133.54 17.5 122.5 17.5H57.5C46.46 17.5 37.5 26.45 37.5 37.5V52.5C45.78 52.5 52.5 59.22 52.5 67.5C52.5 75.78 45.78 82.5 37.5 82.5V142.5C37.5 153.55 46.46 162.5 57.5 162.5H122.5C133.54 162.5 142.5 153.55 142.5 142.5Z" stroke="#C6D8FF" stroke-width="15" stroke-linecap="round" stroke-linejoin="round"/>
</svg>
