<svg width="180" height="180" viewBox="0 0 180 180" fill="none" xmlns="http://www.w3.org/2000/svg">
<path d="M90 0C72.1997 0 54.7991 5.27841 39.9987 15.1677C25.1983 25.0571 13.6628 39.1131 6.85088 55.5585C0.0389956 72.0038 -1.7433 90.0998 1.72937 107.558C5.20203 125.016 13.7737 141.053 26.3604 153.64C38.9471 166.226 54.9836 174.798 72.4419 178.271C89.9002 181.743 107.996 179.961 124.442 173.149C140.887 166.337 154.943 154.802 164.832 140.001C174.722 125.201 180 107.8 180 90C179.973 66.1386 170.483 43.2622 153.61 26.3897C136.738 9.51717 113.861 0.0265372 90 0ZM90 162C75.7598 162 61.8393 157.777 49.999 149.866C38.1586 141.954 28.9302 130.709 23.4807 117.553C18.0312 104.397 16.6054 89.9201 19.3835 75.9535C22.1616 61.9868 29.019 49.1577 39.0883 39.0883C49.1577 29.0189 61.9869 22.1616 75.9535 19.3835C89.9202 16.6053 104.397 18.0312 117.553 23.4807C130.71 28.9302 141.954 38.1586 149.866 49.9989C157.777 61.8393 162 75.7597 162 90C161.978 109.089 154.385 127.39 140.888 140.888C127.39 154.385 109.089 161.978 90 162ZM108.883 68.7041L99 74.4126V45C99 42.613 98.0518 40.3239 96.364 38.636C94.6762 36.9482 92.387 36 90 36C87.6131 36 85.3239 36.9482 83.6361 38.636C81.9482 40.3239 81 42.613 81 45V90C81.0004 91.5797 81.4165 93.1315 82.2065 94.4995C82.9964 95.8675 84.1324 97.0035 85.5004 97.7935C86.8684 98.5835 88.4202 98.9996 89.9999 99C91.5796 99.0004 93.1316 98.5851 94.5 97.7959L117.883 84.2959C118.908 83.7052 119.806 82.9186 120.526 81.9808C121.246 81.043 121.775 79.9725 122.081 78.8304C122.388 77.6884 122.466 76.4971 122.312 75.3247C122.158 74.1523 121.774 73.0218 121.183 71.9977C120.592 70.9736 119.805 70.076 118.867 69.3562C117.929 68.6364 116.858 68.1084 115.716 67.8026C114.573 67.4967 113.382 67.4189 112.21 67.5736C111.037 67.7283 109.907 68.1124 108.883 68.7041Z" fill="#C6D8FF"/>
</svg>
