<svg width="180" height="180" viewBox="0 0 180 180" fill="none" xmlns="http://www.w3.org/2000/svg">
<path d="M85.0001 68.27C81.4801 69.95 78.1801 72.25 75.2701 75.17L75.1701 75.27C61.3601 89.08 61.3601 111.46 75.1701 125.27L96.9201 147.02C110.73 160.83 133.11 160.83 146.92 147.02L147.02 146.92C160.83 133.11 160.83 110.73 147.02 96.92L137.71 87.61" stroke="#C6D8FF" stroke-width="15" stroke-linecap="round" stroke-linejoin="round"/>
<path d="M95.0001 111.73C98.5201 110.05 101.82 107.75 104.73 104.83L104.83 104.73C118.64 90.9201 118.64 68.5401 104.83 54.7301L83.0801 32.9801C69.2701 19.1701 46.8901 19.1701 33.0801 32.9801L32.9801 33.0801C19.1701 46.8901 19.1701 69.2701 32.9801 83.0801L42.2901 92.3901" stroke="#C6D8FF" stroke-width="15" stroke-linecap="round" stroke-linejoin="round"/>
</svg>
